<mxfile host="app.diagrams.net" modified="2023-09-14T15:03:59.091Z" agent="Mozilla/5.0 (Macintosh; Intel Mac OS X 10_15_7) AppleWebKit/605.1.15 (KHTML, like Gecko) Version/16.5.1 Safari/605.1.15" version="21.7.5" etag="-XNdyM2n5DAieS41X_9n" type="github">
  <diagram name="Seite-1" id="osyir9r1dxRIWBwkEoeD">
    <mxGraphModel>
      <root>
        <mxCell id="0" />
        <mxCell id="1" parent="0" />
      </root>
    </mxGraphModel>
  </diagram>
</mxfile>
